<svg xmlns="http://www.w3.org/2000/svg" aria-hidden="true" style="position:absolute;width:0;height:0;overflow:hidden"><defs><symbol id="client1" viewBox="0 0 59 32"><path d="m21.716 4.001 4.005 3.815-7.434-.003v18.51h19.43v-7.077l4 3.811V4.001H21.715zm15.825 14.796L26.186 7.979h11.355v10.818zm-3.525 4.818H21.362V11.166h.894v11.607h11.76v.843zm-10.131 6.137-.471-.97h-.389l.683 1.284v.748h.353v-.748l.684-1.284h-.388l-.471.97zm1.739-.97h.083l.767 2.032h-.368l-.165-.475h-.786l-.164.475h-.367l.765-2.032h.234zm-.373 1.279h.595l-.297-.862-.297.862zm2.455-.338-.035-.044-.009-.013a1.04 1.04 0 0 1-.119-.193l-.003-.006a.546.546 0 0 1 .022-.474.44.44 0 0 1 .183-.175l.003-.001a.596.596 0 0 1 .28-.063c.103 0 .193.021.267.063a.44.44 0 0 1 .199.566l.001-.003a.511.511 0 0 1-.097.145 1.082 1.082 0 0 1-.139.123l-.003.002-.141.103.402.474a.796.796 0 0 0 .088-.365v-.015.001h.29c0 .099-.01.192-.029.28a.873.873 0 0 1-.15.338l.002-.002.297.351h-.389l-.118-.139a.786.786 0 0 1-.203.113l-.005.002a.921.921 0 0 1-.308.053h-.008a.779.779 0 0 1-.35-.074.554.554 0 0 1-.227-.201l-.001-.002a.553.553 0 0 1-.08-.288v-.01c0-.083.017-.155.051-.217a.722.722 0 0 1 .141-.177c.055-.05.118-.099.189-.149zm.167.205-.042.03a.512.512 0 0 0-.109.114l-.001.002a.334.334 0 0 0-.018.345l-.001-.002a.295.295 0 0 0 .112.115l.001.001c.05.027.109.042.172.042h.011-.001a.527.527 0 0 0 .329-.117l-.001.001-.451-.531zm.08-.372.125-.083a.468.468 0 0 0 .125-.113l.001-.001a.25.25 0 0 0 .038-.133v-.01a.203.203 0 0 0-.202-.196h-.012.001-.006a.207.207 0 0 0-.187.119l-.001.001a.288.288 0 0 0 .01.25l-.001-.002c.021.044.05.09.088.138l.023.03zm3.555.596h-.349a.635.635 0 0 1-.066.228l.002-.004a.317.317 0 0 1-.139.137l-.002.001a.526.526 0 0 1-.22.048h-.022.001-.012a.429.429 0 0 1-.202-.05l.002.001a.403.403 0 0 1-.144-.137l-.001-.002a.677.677 0 0 1-.083-.209l-.001-.004a1.322 1.322 0 0 1-.027-.268v-.011.001-.171c0-.109.01-.204.029-.288a.64.64 0 0 1 .091-.213.395.395 0 0 1 .146-.13l.002-.001a.457.457 0 0 1 .198-.045h.012-.001c.097 0 .177.017.237.05s.106.08.137.143a.65.65 0 0 1 .061.224h.349a.858.858 0 0 0-.117-.365l.002.004a.648.648 0 0 0-.256-.245l-.003-.002a.849.849 0 0 0-.384-.09h-.027.001c-.127 0-.242.023-.345.067s-.189.109-.261.194a.871.871 0 0 0-.166.296l-.002.006c-.038.118-.057.25-.057.396v.169c0 .146.019.278.056.396s.093.219.165.303a.745.745 0 0 0 .597.26c.163 0 .303-.03.417-.089s.203-.141.266-.245a.793.793 0 0 0 .111-.355zm1.937-.298v-.111c0-.153-.02-.291-.061-.411a.906.906 0 0 0-.172-.313l.001.001a.74.74 0 0 0-.262-.195l-.005-.002a.83.83 0 0 0-.343-.069.83.83 0 0 0-.342.069.746.746 0 0 0-.267.197.946.946 0 0 0-.173.311 1.26 1.26 0 0 0-.062.393v.019-.001.111c0 .154.021.291.062.413.04.12.1.223.176.312l-.001-.001a.776.776 0 0 0 .608.264c.125 0 .24-.023.343-.067a.736.736 0 0 0 .265-.197c.074-.086.131-.189.171-.311s.06-.259.06-.413zm-.35-.115v.114c0 .114-.011.214-.034.302a.664.664 0 0 1-.096.224l.002-.002a.413.413 0 0 1-.151.134l-.002.001a.462.462 0 0 1-.199.045h-.019a.453.453 0 0 1-.201-.046l.003.001a.448.448 0 0 1-.155-.134l-.001-.001a.658.658 0 0 1-.097-.217l-.001-.005a1.168 1.168 0 0 1-.034-.286v-.017.001-.114c0-.113.011-.213.034-.3s.054-.16.096-.219a.426.426 0 0 1 .153-.133l.002-.001a.445.445 0 0 1 .199-.046h.008c.077 0 .146.015.208.046s.113.074.154.134a.614.614 0 0 1 .097.219c.023.087.034.187.034.3z" style="fill:var(--color1,)"/></symbol><symbol id="client2" viewBox="0 0 59 32"><path d="M28.639 3.392h-.078c-.12-.007-.24-.01-.36-.013h-.26c-.227 0-.458.006-.688.017l-.026-.001-.027.001h.001a16.136 16.136 0 0 0-6.107 1.575l.096-.042-.247.119v12.654l.578-.197a22.371 22.371 0 0 1 1.608-.477 19.047 19.047 0 0 1 4.613-.614h.013v1.662c-.207.001-.407.007-.609.017h-.048a18.56 18.56 0 0 0-3.688.575l.129-.029c-1.61.409-3.022.976-4.333 1.7l.093-.047V4.064A16.636 16.636 0 0 1 23.63 2.28l.118-.026c1.256-.338 2.7-.535 4.189-.541h.248c.292.007.577.021.845.041.705.05 1.404.161 2.089.333v1.636a12.311 12.311 0 0 0-1.982-.303l-.042-.002-.042-.003c-.141-.012-.282-.024-.414-.024zm2.88 1.672c.363.028.739.041 1.119.041a17.99 17.99 0 0 0 4.533-.594l-.125.028a18.1 18.1 0 0 0 4.332-1.701l-.094.047v15.938a16.685 16.685 0 0 1-4.331 1.784l-.118.026c-1.257.337-2.7.533-4.189.539h-.107c-1.093 0-2.153-.137-3.166-.394l.089.019V4.755c.246.057.499.109.756.153.422.071.867.123 1.301.155zm8.111.124-.578.194c-.531.179-1.069.339-1.608.481-1.44.385-3.094.61-4.8.616h-.004c-.377 0-.724-.01-1.059-.032l-.461-.03v13.017l.396.034c.367.033.746.049 1.128.049a15.37 15.37 0 0 0 3.89-.514l-.107.024a15.79 15.79 0 0 0 3.051-1.104l-.094.041.247-.119V5.188zM20.423 25.838a.85.85 0 0 0-.613-.261l-.032.001h.002-.013a.966.966 0 0 0-.365.072l.006-.002a.842.842 0 0 0-.474.475l-.002.006a.919.919 0 0 0-.066.359v2.168c-.006.153.024.305.085.445.051.111.125.21.217.291a.748.748 0 0 0 .297.154c.106.029.215.045.324.045a.919.919 0 0 0 .899-.912v-.242h-.567V28.643a.481.481 0 0 1-.035.183l.001-.003a.337.337 0 0 1-.082.122.402.402 0 0 1-.237.083.286.286 0 0 1-.265-.116l-.001-.001a.504.504 0 0 1-.076-.269v-.023.001-2.022a.7.7 0 0 1 .07-.324.29.29 0 0 1 .244-.133l.035.002h-.001.011c.099 0 .187.048.242.122l.001.001a.453.453 0 0 1 .094.279v.013-.001.187h.561v-.231c0-.133-.025-.26-.072-.377l.002.007a.894.894 0 0 0-.19-.306zm3.367-.024a.976.976 0 0 0-.982-.178.897.897 0 0 0-.517.475l-.002.006a1.007 1.007 0 0 0-.083.42v2.079a1.01 1.01 0 0 0 .083.426.847.847 0 0 0 .219.291c.087.08.189.143.299.183a.978.978 0 0 0 .984-.184l-.001.001a.893.893 0 0 0 .214-.291c.058-.134.086-.279.083-.426v-2.098a1.01 1.01 0 0 0-.086-.408l.003.006a.951.951 0 0 0-.213-.304zm-.265 2.802.001.032a.374.374 0 0 1-.114.269.416.416 0 0 1-.534-.001h.001a.373.373 0 0 1-.114-.268l.002-.035v.001-2.08l-.001-.032c0-.105.044-.201.114-.268a.416.416 0 0 1 .534.001h-.001c.07.068.114.163.114.268 0 .011 0 .023-.002.034v-.001 2.08zm4.687.93v-3.937h-.545l-.716 2.084h-.01l-.722-2.084h-.539v3.936h.562v-2.394h.01l.55 1.693h.281l.555-1.693h.01v2.394h.562zm3.195-3.661a.779.779 0 0 0-.318-.215 1.215 1.215 0 0 0-.386-.061h-.023.001-.835v3.937h.561v-1.538h.289c.175.008.349-.029.506-.107a.823.823 0 0 0 .306-.297l.002-.004a.94.94 0 0 0 .129-.343c.019-.124.03-.267.03-.412v-.037.002a2.212 2.212 0 0 0-.055-.562.836.836 0 0 0-.207-.362zm-.289 1.2a.5.5 0 0 1-.053.208l.001-.003a.316.316 0 0 1-.143.137l-.002.001a.562.562 0 0 1-.235.05l-.03-.001h.001-.256v-1.338h.289l.027-.001a.53.53 0 0 1 .229.051l-.003-.001a.323.323 0 0 1 .131.143l.001.002a.572.572 0 0 1 .049.219v.262c0 .091.006.186 0 .27h-.006zm2.947-1.477h-.46l-.867 3.937h.561l.165-.846h.765l.165.846h.561l-.889-3.937zm-.518 2.555.276-1.427h.01l.274 1.427h-.561zm4.142-.183h-.01l-.847-2.372h-.539v3.937h.561v-2.368h.011l.857 2.367h.528v-3.936h-.561v2.372zm3.428-2.372-.451 1.566h-.011l-.451-1.566h-.593l.77 2.273v1.664h.561v-1.664l.77-2.273h-.594zm-22.258 5.049h.27v.758h.183v-.759h.269v-.155h-.722v.156zm2.272-.156-.354.914h.195l.075-.208h.365l.078.208h.2l-.363-.914h-.195zm-.028.553.124-.339.124.339h-.249zm2.275.024h.211v.118a.344.344 0 0 1-.217.077h-.013a.231.231 0 0 1-.181-.087.376.376 0 0 1-.068-.218l.001-.021v.001c0-.203.088-.305.263-.305l.02-.001c.09 0 .166.062.187.145v.001l.181-.035c-.039-.178-.167-.269-.387-.269h-.012a.462.462 0 0 0-.308.118.444.444 0 0 0-.132.353v-.002.021c0 .123.044.235.118.322l-.001-.001a.445.445 0 0 0 .319.135l.029-.001h-.001.015a.546.546 0 0 0 .373-.146v-.36h-.396v.154zm2.294-.577h-.185v.914h.64v-.155h-.455v-.759zm1.941 0h-.185v.914h.185v-.914zm1.896.61-.374-.61h-.179v.914h.171v-.597l.367.597h.184v-.914h-.17v.611zm1.715-.098h.455v-.155h-.455v-.2h.49v-.156h-.675v.914h.694v-.155h-.509v-.247zm4.157-.151h-.36v-.36h-.183v.914h.183v-.4h.36v.4h.184v-.914h-.184v.361zm1.725.151h.457v-.155h-.457v-.2h.491v-.156h-.674v.914h.693v-.155h-.509v-.247zm2.339 0c.159-.025.24-.109.24-.254a.211.211 0 0 0-.089-.203h-.001a.506.506 0 0 0-.232-.055l-.037.001h.002-.387v.914h.184v-.382h.051c.036 0 .07.008.101.022l-.002-.001a.19.19 0 0 1 .065.067l.199.29h.219l-.111-.178a.635.635 0 0 0-.2-.218l-.002-.001zm-.185-.127h-.135v-.229h.145a.461.461 0 0 1 .19.022l-.003-.001c.025.022.04.054.04.089a.12.12 0 0 1-.048.096.496.496 0 0 1-.153.023l-.036-.001h.002zm1.949.127h.455v-.155h-.455v-.2h.491v-.156h-.677v.914h.694v-.155h-.509v-.247z" style="fill:var(--color1,)"/></symbol><symbol id="client3" viewBox="0 0 59 32"><path d="M21.036 28.13c.009 0 .018.002.026.006l.023.013.126.119a1.049 1.049 0 0 1-.347.223l-.007.002c-.16.057-.331.085-.503.081h-.026c-.16 0-.314-.028-.457-.079l.009.003a1.057 1.057 0 0 1-.357-.213l.001.001a.958.958 0 0 1-.228-.323l-.002-.006a1.063 1.063 0 0 1-.081-.41v-.013.001-.014a1 1 0 0 1 .09-.416l-.003.006a.98.98 0 0 1 .245-.329c.107-.092.233-.165.37-.212l.008-.002c.141-.048.303-.076.471-.076h.017-.001c.154-.003.309.021.453.069.125.047.24.111.339.19l-.106.127a.113.113 0 0 1-.026.023.076.076 0 0 1-.037.01h-.006a.1.1 0 0 1-.046-.014l-.057-.034-.078-.043a.88.88 0 0 0-.244-.075l-.005-.001a1.146 1.146 0 0 0-.172-.013h-.017.001-.012c-.121 0-.237.021-.345.059l.007-.002a.816.816 0 0 0-.275.16l.001-.001a.733.733 0 0 0-.178.254.824.824 0 0 0-.065.323v.012-.001.013c0 .118.024.23.067.332l-.002-.006c.081.193.238.34.432.407l.005.002a.936.936 0 0 0 .325.054 1.38 1.38 0 0 0 .193-.011.768.768 0 0 0 .418-.175l-.001.001a.102.102 0 0 1 .06-.022zm3.644-.596c.002.143-.027.286-.085.419a.906.906 0 0 1-.237.325l-.001.001a1.075 1.075 0 0 1-.373.213 1.568 1.568 0 0 1-.97-.004l.011.003a1.136 1.136 0 0 1-.373-.215l.001.001a.946.946 0 0 1-.237-.323l-.002-.006a1.066 1.066 0 0 1 .003-.847l-.003.007a.992.992 0 0 1 .24-.33c.106-.09.232-.16.371-.206.309-.103.65-.103.959 0 .14.049.267.121.372.214a.965.965 0 0 1 .324.721v.026-.001zm-.332 0a.869.869 0 0 0-.059-.337.697.697 0 0 0-.431-.41l-.005-.001a1.113 1.113 0 0 0-.706.003l.008-.002a.732.732 0 0 0-.267.16.685.685 0 0 0-.169.247l-.002.005a.976.976 0 0 0 0 .674.69.69 0 0 0 .437.41c.225.072.472.072.697 0a.7.7 0 0 0 .435-.41.854.854 0 0 0 .059-.337zm2.818.354.033.075c.013-.027.024-.051.037-.075a.665.665 0 0 1 .041-.074l.806-1.252c.016-.022.03-.035.046-.04s.035-.007.054-.007h.013-.001.238v2.036h-.282v-1.56l-.001-.035.001-.037v.002l-.811 1.269a.11.11 0 0 1-.047.046h-.001a.14.14 0 0 1-.068.017h-.049a.137.137 0 0 1-.069-.018h.001a.12.12 0 0 1-.047-.045v-.001l-.834-1.278v1.634h-.273v-2.032h.248c.02 0 .039.003.057.007h-.002a.087.087 0 0 1 .044.038l.823 1.253c.017.023.03.048.041.073zm3.034-.101v.762h-.315v-2.033h.703a1.52 1.52 0 0 1 .393.045.79.79 0 0 1 .278.126c.067.052.121.12.156.197l.001.003a.619.619 0 0 1 .054.26v.009c0 .186-.089.35-.227.453l-.001.001a.814.814 0 0 1-.274.134l-.006.001a1.377 1.377 0 0 1-.379.047l-.382-.006zm0-.219h.382a.915.915 0 0 0 .245-.031.53.53 0 0 0 .178-.088l-.001.001a.383.383 0 0 0 .145-.301v-.005l.001-.021a.328.328 0 0 0-.034-.147l.001.002a.394.394 0 0 0-.11-.138l-.001-.001a.677.677 0 0 0-.426-.109h.002-.382v.838zm4.239.984h-.253a.12.12 0 0 1-.065-.019.139.139 0 0 1-.041-.046v-.001l-.214-.492h-1.078l-.222.491a.118.118 0 0 1-.106.066h-.253l.946-2.036h.328l.959 2.036zm-1.561-.756h.89l-.375-.829a1.236 1.236 0 0 1-.069-.182l-.002-.009-.036.106a.858.858 0 0 1-.034.086l-.373.829zm2.925-1.271a.14.14 0 0 1 .047.036l1.381 1.535v-1.581h.282v2.036h-.164a.153.153 0 0 1-.06-.012h.001a.174.174 0 0 1-.05-.038l-1.378-1.534.001.035-.001.037v-.002 1.513h-.282v-2.036h.167a.14.14 0 0 1 .057.009zm4.035 1.217v.809h-.315v-.809l-.872-1.226h.289c.023 0 .044.006.061.018a.183.183 0 0 1 .042.046l.546.791c.037.052.07.112.094.175l.002.005.041-.087a.724.724 0 0 1 .054-.093l.538-.797a.187.187 0 0 1 .041-.043.102.102 0 0 1 .062-.02h.291l-.874 1.232zM27.01 23.098c.137.015.276.027.417.038 2.129-.813 3.929-2.145 5.177-3.828s1.887-3.643 1.838-5.635l-2.345-2.004a10.049 10.049 0 0 1-.645 6.332c-.898 2.018-2.436 3.783-4.442 5.098z" style="fill:var(--color1,)"/><path d="m26.172 23.004.063.011c2.143-1.31 3.777-3.139 4.691-5.25s1.065-4.408.433-6.594l-3.341-2.855c1.352 2.346 1.896 4.972 1.569 7.572s-1.511 5.068-3.414 7.116zm11.331-6.978c-.567 2.189-1.946 4.163-3.931 5.629-.541.405-1.153.786-1.796 1.112l-.071.033c1.616-.406 3.102-1.124 4.342-2.097s2.202-2.178 2.812-3.52l-1.354-1.157z" style="fill:var(--color1,)"/><path d="m36.972 15.703-1.929-1.648c-.037 1.879-.662 3.716-1.811 5.319s-2.779 2.914-4.722 3.796h.01c.433 0 .865-.022 1.295-.066 1.815-.633 3.419-1.64 4.668-2.932s2.104-2.827 2.489-4.469zm-10.521-8.59L24.15 5.144c-2.057.679-3.827 1.873-5.077 3.426s-1.922 3.392-1.929 5.277c.008 2.082.828 4.103 2.332 5.742s3.603 2.803 5.967 3.308c2.111-2.198 3.347-4.913 3.528-7.752s-.702-5.652-2.52-8.033zM42.289 15.4c-.009-2.47-1.161-4.838-3.206-6.585-2.044-1.747-4.815-2.732-7.707-2.739h-.025c-1.388 0-2.723.227-3.97.647l.088-.026 14.092 12.04c.459-.98.727-2.127.729-3.337v-.001z" style="fill:var(--color1,)"/></symbol><symbol id="client4" viewBox="0 0 59 32"><path d="M13.76 12.297h-.002c-1.363 0-2.469.997-2.469 2.225v.002c0 1.229 1.106 2.225 2.469 2.225h.002c1.364 0 2.469-.996 2.469-2.225v-.002c0-1.229-1.105-2.225-2.469-2.225zm18.22-.711c-.003-1.708-.757-3.343-2.096-4.551-1.339-1.207-3.153-1.887-5.048-1.891-1.894.003-3.709.683-5.049 1.89s-2.094 2.844-2.097 4.552V21s14.289-1.434 14.29-9.413v-.002zM6.286 24.09c.003 1.188.528 2.326 1.46 3.167s2.194 1.314 3.512 1.317c1.317-.003 2.58-.477 3.511-1.317s1.456-1.977 1.46-3.166v-6.55s-9.943.998-9.943 6.549zm4.972 1.174c-.257 0-.509-.069-.723-.198a1.218 1.218 0 0 1-.476-.52l-.003-.007a1.045 1.045 0 0 1-.073-.685l-.001.007c.056-.241.182-.446.355-.6l.001-.001c.181-.161.408-.275.659-.32l.008-.001c.253-.046.514-.022.752.067s.441.239.584.432a1.093 1.093 0 0 1 .121 1.103 1.164 1.164 0 0 1-.282.382c-.119.107-.26.194-.414.252l-.009.003c-.148.057-.319.09-.498.09h-.002v-.005zm9.092-2.11v2.438h-.502v-2.438h.502zm.971 1.041v.392h-1.109v-.392h1.109zm.117-1.041v.393h-1.225v-.393h1.225zm2.294 1.161v.115c0 .186-.025.352-.075.499a1.102 1.102 0 0 1-.214.379l.001-.001a.919.919 0 0 1-.328.236c-.12.052-.259.082-.406.082h-.016.001c-.153 0-.293-.027-.42-.082a.951.951 0 0 1-.327-.235l-.001-.001a1.106 1.106 0 0 1-.214-.369l-.002-.008a1.505 1.505 0 0 1-.076-.477v-.023.001-.115c0-.186.025-.353.075-.499.048-.145.121-.271.214-.378l-.001.001a.938.938 0 0 1 .328-.238c.127-.055.267-.082.421-.082.154 0 .294.027.42.082a.912.912 0 0 1 .328.238c.093.104.164.229.214.377.051.146.077.312.077.498zm-.508.116v-.119c0-.129-.011-.243-.035-.341a.743.743 0 0 0-.106-.251l.002.003a.448.448 0 0 0-.165-.15l-.002-.001a.478.478 0 0 0-.216-.052h-.01a.485.485 0 0 0-.226.051.465.465 0 0 0-.165.149l-.001.002a.752.752 0 0 0-.101.243l-.001.005a1.452 1.452 0 0 0-.035.32v.022-.001.119c0 .129.011.242.035.342a.76.76 0 0 0 .104.25c.046.067.102.118.167.152s.141.052.226.052c.085 0 .16-.017.226-.051a.453.453 0 0 0 .165-.151l.001-.002a.77.77 0 0 0 .102-.25c.022-.097.035-.207.035-.321v-.022.001zm2.138.522v-.005a.308.308 0 0 0-.021-.114l.001.002a.23.23 0 0 0-.07-.097.636.636 0 0 0-.142-.087l-.004-.002a1.852 1.852 0 0 0-.228-.086l-.015-.004a3.048 3.048 0 0 1-.334-.128l.019.008a1.265 1.265 0 0 1-.264-.158l.003.002a.691.691 0 0 1-.175-.206l-.002-.004a.575.575 0 0 1-.064-.264v-.012.001-.008c0-.098.025-.191.068-.271l-.002.003a.637.637 0 0 1 .187-.214.861.861 0 0 1 .285-.139 1.3 1.3 0 0 1 .363-.049c.179 0 .337.033.47.097s.238.154.311.266a.691.691 0 0 1 .112.387h-.499v-.009a.38.38 0 0 0-.046-.181l.001.002a.307.307 0 0 0-.132-.128l-.002-.001a.467.467 0 0 0-.207-.047h-.019.001-.017a.517.517 0 0 0-.204.042l.003-.001a.295.295 0 0 0-.131.105l-.001.001a.257.257 0 0 0-.043.143v.005c0 .041.01.079.03.112a.343.343 0 0 0 .093.093l.001.001c.041.029.091.057.152.082s.13.051.209.075c.133.04.25.085.35.135s.186.106.254.169a.62.62 0 0 1 .205.483v.023a.587.587 0 0 1-.24.473l-.002.001c-.078.058-.171.102-.279.132s-.229.046-.363.046a1.4 1.4 0 0 1-.357-.047 1.067 1.067 0 0 1-.324-.148l.004.002a.742.742 0 0 1-.226-.244l-.002-.004a.712.712 0 0 1-.085-.357h.504c0 .076.011.14.035.193a.323.323 0 0 0 .098.126l.001.001a.436.436 0 0 0 .151.07l.003.001c.06.015.126.022.197.022h.019c.07 0 .138-.014.199-.038l-.004.001a.265.265 0 0 0 .167-.246v-.004zm1.934-1.799v2.438h-.501v-2.438h.501zm.75 0v.393h-1.989v-.393h1.989zm1.922 2.046v.392h-1.297V25.2h1.297zm-1.133-2.046v2.438h-.503v-2.438h.503zm.964.992v.382H28.67v-.382h1.129zm.167-.992v.393H28.67v-.393h1.296zm.295 0h.909c.187 0 .347.028.481.083.135.056.239.139.311.248s.109.244.109.403a.773.773 0 0 1-.067.337.647.647 0 0 1-.184.232l-.001.001a.965.965 0 0 1-.273.145l-.007.002-.159.084h-.79l-.003-.392h.604a.46.46 0 0 0 .206-.048l-.003.001a.317.317 0 0 0 .13-.129l.001-.002a.392.392 0 0 0 .045-.185V23.913a.436.436 0 0 0-.045-.194l.001.003a.294.294 0 0 0-.131-.13l-.002-.001a.484.484 0 0 0-.207-.046h-.017.001-.407v2.045h-.502v-2.438zm1.363 2.438-.555-1.087.53-.003.563 1.067v.023h-.537zm2.637-.869h-.621v-.392h.641a.493.493 0 0 0 .217-.049l-.003.001a.3.3 0 0 0 .131-.133l.001-.002a.485.485 0 0 0-.002-.398l.001.003a.342.342 0 0 0-.131-.15l-.001-.001a.433.433 0 0 0-.216-.058h-.019.001-.447v2.045h-.502v-2.438h.949c.191 0 .354.034.491.104.137.068.242.162.314.283s.109.258.109.413c0 .158-.036.294-.109.409s-.177.204-.314.266c-.137.063-.3.094-.491.094zm2.896.477v.392H35.86V25.2h1.297zm-1.133-2.046v2.438h-.503v-2.438h.503zm.964.992v.382H35.86v-.382h1.129zm.168-.992v.393H35.86v-.393h1.296zm1.418 0v2.438h-.501v-2.438h.501zm.75 0v.393h-1.989v-.393h1.989zm1.922 2.046v.392h-1.297V25.2h1.297zm-1.134-2.046v2.438h-.502v-2.438h.502zm.965.992v.382h-1.128v-.382h1.128zm.167-.992v.393h-1.296v-.393h1.296zm.295 0h.909c.187 0 .347.028.481.083s.239.139.311.248a.717.717 0 0 1 .109.403c0 .131-.023.243-.067.337s-.107.171-.184.232l-.001.001a.965.965 0 0 1-.273.145l-.007.002-.159.084h-.79l-.003-.392h.604a.46.46 0 0 0 .206-.048l-.003.001a.317.317 0 0 0 .13-.129l.001-.002a.394.394 0 0 0 .046-.186V23.915a.44.44 0 0 0-.045-.195l.001.003a.297.297 0 0 0-.13-.13l-.002-.001a.484.484 0 0 0-.207-.046h-.017.001-.407v2.045h-.502v-2.438zm1.363 2.438-.556-1.087.531-.003.562 1.067v.023h-.537zm2.103-.639v-.004a.341.341 0 0 0-.021-.116l.001.002a.23.23 0 0 0-.07-.097.636.636 0 0 0-.142-.087l-.004-.002a1.793 1.793 0 0 0-.228-.086l-.015-.004a2.899 2.899 0 0 1-.334-.128l.019.008a1.291 1.291 0 0 1-.264-.158l.003.002a.691.691 0 0 1-.175-.206l-.002-.004a.575.575 0 0 1-.064-.264v-.012.001-.008c0-.098.025-.191.068-.271l-.002.003a.637.637 0 0 1 .187-.214.861.861 0 0 1 .285-.139 1.3 1.3 0 0 1 .363-.049c.179 0 .337.033.47.097s.238.154.311.266a.683.683 0 0 1 .112.387h-.499v-.009a.38.38 0 0 0-.046-.181l.001.002a.307.307 0 0 0-.132-.128l-.002-.001a.467.467 0 0 0-.207-.047h-.019.001-.017a.517.517 0 0 0-.204.042l.003-.001a.287.287 0 0 0-.13.105l-.001.001a.257.257 0 0 0-.043.144v.004c0 .041.01.079.03.112a.343.343 0 0 0 .093.093l.001.001c.041.029.091.057.152.082s.13.051.209.075c.133.04.25.085.35.135s.186.106.254.169a.62.62 0 0 1 .205.483v.023a.585.585 0 0 1-.24.473l-.002.001c-.078.058-.171.102-.279.132s-.229.046-.363.046c-.121 0-.24-.016-.357-.047a1.067 1.067 0 0 1-.324-.148l.004.002a.732.732 0 0 1-.226-.244l-.002-.004a.712.712 0 0 1-.085-.357h.504c0 .076.011.14.035.193a.323.323 0 0 0 .098.126l.001.001a.436.436 0 0 0 .151.07l.003.001c.06.015.126.022.198.022h.018c.07 0 .138-.014.199-.038l-.004.001a.265.265 0 0 0 .167-.246v-.004z" style="fill:var(--color1,)"/></symbol><symbol id="client5" viewBox="0 0 59 32"><path d="M15.311 25.358c.14.157.215.352.211.553.007.131-.019.262-.075.383s-.143.229-.252.315a1.516 1.516 0 0 1-.956.254h.005-1.672v-3.504h1.637a1.51 1.51 0 0 1 .914.236l-.006-.004c.105.08.189.181.245.294s.08.238.073.362a.756.756 0 0 1-.19.535.91.91 0 0 1-.492.273l-.006.001a.985.985 0 0 1 .565.299zm-1.961-.529h.7a.712.712 0 0 0 .445-.116.415.415 0 0 0 .119-.153l.001-.003a.376.376 0 0 0 .03-.189v.002l.001-.029a.384.384 0 0 0-.034-.159l.001.003a.443.443 0 0 0-.116-.156h-.001a.726.726 0 0 0-.461-.118h.003-.689v.919zm1.213 1.344a.437.437 0 0 0 .128-.158l.001-.003a.384.384 0 0 0 .037-.168l-.001-.028v.001l.001-.025a.395.395 0 0 0-.04-.175l.001.002a.458.458 0 0 0-.13-.161l-.001-.001a.777.777 0 0 0-.429-.128c-.016 0-.033 0-.049.002h.002-.734v.964h.744a.794.794 0 0 0 .47-.122zm4.095.692-.911-1.37h-.343v1.369h-.783V23.36h1.483a1.566 1.566 0 0 1 1.037.3l-.004-.003c.207.19.333.441.353.707s-.066.529-.242.743a1.246 1.246 0 0 1-.707.357l.97 1.4h-.852zm-1.253-1.847h.641c.445 0 .667-.177.667-.531l.001-.029a.488.488 0 0 0-.038-.187l.001.003a.51.51 0 0 0-.127-.181.741.741 0 0 0-.506-.141h.003-.649l.008 1.066zm5.536 1.142h-1.562l-.276.705h-.821l1.434-3.465h.888l1.428 3.465h-.822l-.27-.705zm-.209-.531-.571-1.48-.57 1.479h1.141zm5.569 1.236h-.777l-1.744-2.383v2.383h-.776V23.36h.776l1.744 2.397V23.36h.778v3.504zm4.439-.839c-.169.27-.409.483-.694.614l-.01.004a2.5 2.5 0 0 1-1.093.221h-1.385v-3.504h1.385l.064-.001c.372 0 .726.08 1.045.223l-.016-.006c.298.135.543.349.703.611a1.867 1.867 0 0 1-.005 1.847l.005-.009zm-.89-.084c.211-.216.342-.511.344-.836a1.207 1.207 0 0 0-.344-.836 1.438 1.438 0 0 0-.978-.298h.004-.54v2.269h.54a1.443 1.443 0 0 0 .977-.3l-.003.002zM23.428 3.868s10.039 3.412 9.826 8.349v8.352s-10.032-3.414-9.823-8.352l-.003-8.349zm18.769 14.745a14.711 14.711 0 0 1 6.378-2.116v-2.614c-2.638.915-4.875 2.575-6.378 4.73z" style="fill:var(--color1,)"/><path d="M41.058 19.401c1.551-2.813 4.242-4.984 7.517-6.066V5.802s-14.297 4.86-13.995 11.892v11.89s.637-.217 1.64-.625c0-.38 0-.764.046-1.149.296-3.264 2.02-6.289 4.792-8.409z" style="fill:var(--color1, )"/><path d="M39.698 23.818c.084-.899.261-1.726.523-2.513l-.023.079c-1.727 1.831-2.772 4.103-2.99 6.497-.021.226-.032.451-.038.685a40.123 40.123 0 0 0 2.987-1.418l-.237.114a11.185 11.185 0 0 1-.219-3.487l-.003.044zm.569.043a10.648 10.648 0 0 0 .189 3.187l-.012-.07c3.906-2.104 8.295-5.355 8.126-9.284v-.343c-2.791.282-5.402 1.38-7.432 3.127a10.503 10.503 0 0 0-.868 3.341l-.003.042z" style="fill:var(--color1, )"/></symbol><symbol id="client6" viewBox="0 0 59 32"><path d="M30.591 15.683a1.674 1.674 0 0 1-.346-1.144v.005-1.65c0-.506.115-.89.345-1.153s.624-.394 1.183-.393c.526 0 .898.112 1.119.336.24.286.357.635.33.987v.389h-.94v-.393a2.072 2.072 0 0 0-.027-.385.372.372 0 0 0-.133-.228l-.001-.001a.541.541 0 0 0-.343-.088h.002l-.041-.001a.572.572 0 0 0-.319.097l.002-.001a.437.437 0 0 0-.155.249l-.001.003a1.844 1.844 0 0 0-.037.376v.034-.002 2.003a1.022 1.022 0 0 0 .123.567l-.003-.005a.46.46 0 0 0 .184.136l.003.001c.076.029.16.04.243.031.12.009.24-.024.333-.091a.407.407 0 0 0 .14-.241v-.002a2.16 2.16 0 0 0 .029-.401v-.406h.94v.371a1.507 1.507 0 0 1-.328 1.04l.002-.003c-.215.245-.583.367-1.124.367s-.949-.131-1.181-.403zm3.912.017c-.237-.257-.356-.631-.356-1.127v-1.736c0-.49.119-.861.356-1.113s.634-.377 1.191-.376c.553 0 .947.126 1.185.376.238.252.358.623.358 1.113v1.736c0 .49-.121.866-.362 1.125s-.634.387-1.181.387-.952-.131-1.191-.386zm1.629-.416a.968.968 0 0 0 .113-.514v-2.126a.942.942 0 0 0-.113-.508l.002.005a.443.443 0 0 0-.188-.138l-.003-.001a.52.52 0 0 0-.251-.03h.003a.521.521 0 0 0-.253.031l.004-.001a.45.45 0 0 0-.193.137l-.001.001a.912.912 0 0 0-.113.503v2.136a.95.95 0 0 0 .113.514.65.65 0 0 0 .685.126l-.004.002a.606.606 0 0 0 .198-.127v-.01zm2.236-3.885h1.011l.761 3.203.778-3.203h.985l.099 4.623h-.728l-.078-3.213-.751 3.213h-.583l-.778-3.225-.072 3.225h-.736l.091-4.623zm4.769 0h1.576c.907 0 1.362.438 1.362 1.313 0 .838-.478 1.257-1.434 1.256h-.537v2.055h-.973l.006-4.624zm1.346 1.976a.765.765 0 0 0 .535-.146.744.744 0 0 0 .139-.525v.003l.001-.053c0-.13-.017-.257-.05-.377l.002.01a.345.345 0 0 0-.072-.127.405.405 0 0 0-.121-.092l-.002-.001a1 1 0 0 0-.382-.075l-.055.002h.003-.377v1.382h.377zm2.995-1.976h1.045l1.072 4.623h-.907l-.211-1.066h-.932l-.218 1.066h-.92l1.072-4.624zm.893 3.022-.364-1.941-.364 1.941h.727zm2.089-3.022h.681l1.303 2.637v-2.637h.808v4.623h-.648l-1.312-2.753v2.753h-.834l.002-4.623zm4.683 2.861-1.084-2.855h.913l.661 1.833.621-1.833h.893l-1.07 2.855v1.762h-.934V14.26zm-23.05 3.784v.242h-.794v1.878h-.332v-1.878h-.798v-.242h1.924zm2.488 2.12h-.264a.119.119 0 0 1-.065-.02.117.117 0 0 1-.043-.048v-.001l-.23-.503h-1.101l-.23.503a.142.142 0 0 1-.034.057.117.117 0 0 1-.066.02h-.264l.973-2.12h.338l.985 2.112zm-1.611-.787h.918l-.389-.863a1.417 1.417 0 0 1-.07-.189l-.003-.011-.037.113-.035.089-.385.861zm3.288.579c.061.003.122.003.183 0 .053-.005.105-.013.156-.025.056-.012.103-.025.148-.041l-.008.003c.043-.015.086-.034.13-.053v-.477h-.394a.064.064 0 0 1-.024-.004h.001a.092.092 0 0 1-.024-.013.061.061 0 0 1-.015-.017.041.041 0 0 1-.005-.019v-.165h.755v.813a1.45 1.45 0 0 1-.4.171l-.01.002c-.08.02-.161.034-.243.043a2.768 2.768 0 0 1-.284.014h-.011c-.172 0-.336-.029-.489-.083l.01.003a1.194 1.194 0 0 1-.391-.223l.002.001a1.035 1.035 0 0 1-.249-.33l-.003-.006a1.05 1.05 0 0 1-.089-.426v-.015.001-.013c0-.155.032-.303.09-.437l-.003.007a.982.982 0 0 1 .251-.336 1.19 1.19 0 0 1 .389-.22 1.64 1.64 0 0 1 .522-.079c.091 0 .181.006.27.018a1.273 1.273 0 0 1 .595.249l-.093.131a.079.079 0 0 1-.032.028.093.093 0 0 1-.044.011.139.139 0 0 1-.061-.017h.001a1.278 1.278 0 0 1-.1-.053l.005.003a.798.798 0 0 0-.125-.055l-.006-.002a1.208 1.208 0 0 0-.171-.046l-.008-.001a1.417 1.417 0 0 0-.234-.018h-.014.001-.012c-.13 0-.255.022-.372.061l.008-.002a.81.81 0 0 0-.286.169l.001-.001a.742.742 0 0 0-.182.263.982.982 0 0 0 .003.714l-.002-.007c.043.099.109.19.195.267.08.073.177.13.284.168.124.037.255.051.385.042zm3.102-.033h1.063v.242h-1.388v-2.12h.333l-.008 1.878zm2.167.241h-.333v-2.12h.333v2.12zm1.238-2.11c.02.01.037.023.051.039l1.422 1.598-.001-.038.002-.039v.002-1.58h.29v2.129H44.351a.16.16 0 0 1-.062-.013h.001a.19.19 0 0 1-.052-.04l-1.42-1.597v1.649h-.278v-2.121h.173c.019 0 .038.003.055.01zm4.213-.01v.233h-1.18v.7h.955v.225h-.955v.724h1.179v.233h-1.522v-2.115h1.522zM12.112 4.949l14.774 3.62v12.684l-14.774-3.617V4.949zm-.947-1.081v14.383l16.667 4.085V7.955L11.165 3.868z" style="fill:var(--color1,)"/><path d="M20.098 29.012 3.429 24.924V10.542l16.669 4.086v14.384z" style="fill:var(--color1,)"/><path d="M11.441 4.786 26.022 8.36l-6.2 5.352-14.583-3.576 6.203-5.35zm-.276-.918-7.736 6.675 16.669 4.087 7.734-6.675-16.667-4.087zm9.871 24.335 6.796-5.866-6.797-1.667v7.533z" style="fill:var(--color1,)"/></symbol><symbol id="close" viewBox="0 0 32 32"><path d="M32.011 3.225 28.786 0 16.005 12.781 3.224 0-.001 3.225 12.78 16.006-.001 28.787l3.225 3.225 12.781-12.781 12.781 12.781 3.225-3.225L19.23 16.006 32.011 3.225z"/></symbol><symbol id="diligence" viewBox="0 0 32 32"><path fill="#4d5ae5" d="M14.928 14.967h1.066v4.798h-1.066v-4.798zm4.265 2.132h1.066v2.665h-1.066v-2.665zm-8.531 1.599h1.066v1.066h-1.066v-1.066zm-3.199-.533H8.53v1.599H7.463v-1.599z" style="fill:var(--color2, #4d5ae5)"/><path fill="#2e2f42" d="M1.599 28.295h25.59a1.6 1.6 0 0 0 1.599-1.599v-2.133a1.6 1.6 0 0 0-1.599-1.599h-.534V9.669l3.028-2.868a1.608 1.608 0 1 0-.742-.753l-.004-.01-2.282 2.163v-1.23a1.6 1.6 0 0 0-1.599-1.599H3.73a1.6 1.6 0 0 0-1.599 1.599v15.994h-.533a1.6 1.6 0 0 0-1.599 1.599v2.134a1.6 1.6 0 0 0 1.599 1.599zM30.388 4.837a.533.533 0 1 1 0 1.066.533.533 0 1 1 0-1.066zM3.199 6.97c0-.295.239-.534.533-.534h21.325c.295 0 .533.239.533.534v2.239l-1.066 1.013V8.036a.533.533 0 0 0-.533-.533H4.798a.533.533 0 0 0-.533.533v13.328c0 .295.239.534.533.534h19.193a.533.533 0 0 0 .533-.534v-9.675l1.066-1.01v12.285H3.199V6.971zm4.798 6.93h-.005a1.6 1.6 0 1 0 1.112 2.748l1.853.93a.533.533 0 0 0 .637-.123l3.939-4.432 3.873 2.902a.532.532 0 0 0 .686-.04l3.365-3.188v8.132H5.332V8.567h18.126v2.66l-3.773 3.572-3.906-2.928a.531.531 0 0 0-.717.072v.001l-3.994 4.493-1.493-.747c.011-.064.018-.129.021-.194a1.6 1.6 0 0 0-1.599-1.599zm.533 1.6a.533.533 0 1 1-1.066 0 .533.533 0 1 1 1.066 0zm3.199 8.53h5.331v.533a.533.533 0 0 1-.533.533h-4.265a.533.533 0 0 1-.533-.533v-.533zm-10.663.533c0-.295.239-.533.533-.533h9.063v.533a1.6 1.6 0 0 0 1.599 1.599h4.266a1.6 1.6 0 0 0 1.599-1.599v-.534h9.062c.295 0 .534.239.534.533v2.133a.534.534 0 0 1-.534.533H1.599a.533.533 0 0 1-.533-.533v-2.133z" style="fill:var(--color3, #2e2f42)"/></symbol><symbol id="facebook" viewBox="0 0 32 32"><path fill="#f4f4fd" d="M21.338 5.316h2.921V.226A36.575 36.575 0 0 0 20.132 0h-.138.007c-4.213 0-7.097 2.651-7.097 7.523v4.482H8.252v5.69h4.65v14.317h5.7V17.697h4.462l.708-5.692H18.6V8.084c.002-1.645.444-2.769 2.737-2.769z" style="fill:var(--color4, #f4f4fd)"/></symbol><symbol id="instagram" viewBox="0 0 32 32"><path fill="#f4f4fd" d="M31.979 9.411c-.074-1.701-.35-2.871-.744-3.883a7.87 7.87 0 0 0-1.849-2.84l-.001-.001A7.888 7.888 0 0 0 26.606.863l-.054-.018c-1.02-.394-2.181-.67-3.881-.744-1.717-.08-2.263-.1-6.604-.1-4.348 0-4.892.02-6.598.094C7.768.169 6.6.445 5.588.839a7.87 7.87 0 0 0-2.84 1.849l-.001.001A7.893 7.893 0 0 0 .921 5.468l-.018.054C.509 6.542.235 7.703.159 9.403c-.08 1.715-.1 2.261-.1 6.604 0 4.348.02 4.892.094 6.598.074 1.701.35 2.871.744 3.883a7.88 7.88 0 0 0 1.851 2.839 7.895 7.895 0 0 0 2.833 1.845c1.02.394 2.181.67 3.883.744 1.707.076 2.251.094 6.598.094 4.346 0 4.89-.02 6.596-.094 1.701-.074 2.871-.35 3.883-.744a8.23 8.23 0 0 0 4.664-4.628l.019-.055c.394-1.02.67-2.181.744-3.883.076-1.707.094-2.251.094-6.598 0-4.346-.006-4.89-.08-6.596zM29.098 22.48c-.07 1.565-.332 2.409-.552 2.971a5.346 5.346 0 0 1-3.003 3.029l-.036.013c-.562.218-1.413.48-2.969.548-1.689.076-2.195.094-6.466.094s-4.784-.02-6.466-.094c-1.565-.068-2.409-.33-2.971-.55a4.95 4.95 0 0 1-1.838-1.193l-.001-.001a4.975 4.975 0 0 1-1.183-1.804l-.011-.034c-.22-.562-.48-1.413-.55-2.969-.074-1.689-.094-2.197-.094-6.466 0-4.272.02-4.784.094-6.466.07-1.565.332-2.409.55-2.971a4.899 4.899 0 0 1 1.2-1.839 4.957 4.957 0 0 1 1.841-1.194c.56-.22 1.412-.48 2.969-.55 1.689-.074 2.195-.094 6.466-.094 4.278 0 4.782.02 6.466.094 1.563.07 2.407.332 2.969.55a4.94 4.94 0 0 1 1.841 1.194c.53.52.936 1.144 1.192 1.841.22.56.482 1.41.55 2.969.076 1.689.094 2.195.094 6.466s-.018 4.772-.092 6.458z" style="fill:var(--color4, #f4f4fd)"/><path fill="#f4f4fd" d="M16.066 7.785a8.226 8.226 0 0 0-.01 16.446h.009a8.226 8.226 0 0 0 .01-16.446h-.009zm0 13.559a5.336 5.336 0 1 1 0-10.672 5.336 5.336 0 1 1 0 10.672zM26.533 7.461a1.92 1.92 0 1 1-3.842 0 1.92 1.92 0 1 1 3.842 0z" style="fill:var(--color4, #f4f4fd)"/></symbol><symbol id="linkedin" viewBox="0 0 32 32"><path fill="#f4f4fd" d="M32.003 32.011h.008V20.267c0-5.742-1.236-10.168-7.951-10.168-3.227 0-5.394 1.773-6.278 3.451h-.094v-2.913h-6.364v21.374h6.63V21.427c0-2.785.528-5.478 3.977-5.478 3.401 0 3.451 3.179 3.451 5.658v10.404h6.622zM.528 10.64h6.636v21.372H.528V10.64zM3.843 0C1.722 0 .002 1.721.002 3.841s1.721 3.881 3.841 3.881c2.123 0 3.845-1.761 3.845-3.881S5.961 0 3.841 0z" style="fill:var(--color4, #f4f4fd)"/></symbol><symbol id="punctuality" viewBox="0 0 32 32"><path fill="#2e2f42" d="M31.301 15.303C31.299 6.85 24.445-.002 15.991 0S.686 6.856.688 15.31c.002 6.789 4.423 12.545 10.543 14.547l.108.031a.677.677 0 0 0 .53-.064.642.642 0 0 0 .284-.357l3.865-12.252a1.913 1.913 0 1 0-.852-3.63l.011-.005-5.107-5.107a.637.637 0 1 0-.902.902l5.104 5.11a1.847 1.847 0 0 0-.191.826c0 .602.283 1.137.723 1.48l.004.003-3.683 11.675C3.846 25.788.119 17.714 2.8 10.435 5.481 3.157 13.556-.571 20.834 2.11s11.005 10.756 8.325 18.034c-1.345 3.582-4.004 6.407-7.375 7.939l-.088.036-.398-1.875a.638.638 0 0 0-1.049-.343l.001-.001-3.837 3.426a.639.639 0 0 0 .227 1.084l.005.001 4.899 1.564a.638.638 0 0 0 .819-.744l.001.004-.391-1.839c5.528-2.375 9.33-7.773 9.33-14.059v-.034.002zm-15.307-.638a.638.638 0 0 1 0 1.276.638.638 0 0 1 0-1.276zm2.101 14.866 2.184-1.948.603 2.84-2.787-.892z" style="fill:var(--color3, #2e2f42)"/><path fill="#4d5ae5" d="M15.357 3.185V4.46a.638.638 0 1 0 1.276 0V3.185a.639.639 0 0 0-1.276-.001v.001zm-11.48 11.48a.638.638 0 1 0 0 1.276h1.275a.638.638 0 1 0 0-1.276H3.877zm24.235 1.276a.638.638 0 1 0 0-1.276h-1.275a.639.639 0 0 0-.001 1.276H28.112z" style="fill:var(--color2, #4d5ae5)"/></symbol><symbol id="strategy" viewBox="0 0 32 32"><path fill="#4d5ae5" d="M31.978 4.525a.535.535 0 0 0-.427-.362h-.003l-1.911-.278-.855-1.731c-.179-.365-.777-.365-.956 0l-.855 1.731-1.91.278a.534.534 0 0 0-.296.91l1.383 1.348-.327 1.903c-.034.2.048.402.212.522a.528.528 0 0 0 .562.04l1.709-.899 1.709.899a.534.534 0 0 0 .773-.565v.003l-.326-1.903 1.383-1.348a.535.535 0 0 0 .134-.551l.001.004zm-2.463 1.327a.534.534 0 0 0-.153.472l.191 1.114-1.001-.526a.525.525 0 0 0-.5.001l.003-.001-1.001.526.191-1.114a.53.53 0 0 0-.153-.472l-.81-.79 1.119-.163a.535.535 0 0 0 .402-.292l.5-1.013.501 1.013a.532.532 0 0 0 .402.292l1.119.163-.809.79zm-3.378 14.673H25.07v1.067h1.067v-1.067zm0 2.134H25.07v1.067h1.067v-1.068zM27.204 21.592h-1.067v1.067h1.067v-1.067zm-2.134 0h-1.067v1.067h1.067v-1.067zm-2.667 4.801h-1.067v1.067h1.067v-1.067zm0 2.133h-1.067v1.067h1.067v-1.067zm1.067-1.067h-1.067v1.067h1.067v-1.068zM21.336 27.459h-1.067v1.067h1.067v-1.068zm-5.334-3.2h-1.067v1.067h1.067v-1.068zm0 2.134h-1.067v1.067h1.067v-1.067zm1.067-1.067h-1.067v1.067h1.067v-1.067zm-2.134 0h-1.067v1.067h1.067v-1.067zM5.867 6.123H4.8V7.19h1.067V6.123zm0 2.133H4.8v1.067h1.067V8.256zm1.067-1.067H5.867v1.067h1.067V7.189zm-2.133 0H3.734v1.067h1.067V7.189z" style="fill:var(--color2, #4d5ae5)"/><path fill="#2e2f42" d="M24.718 14.161a1.774 1.774 0 0 0-1.179-.704l-.009-.001a1.77 1.77 0 0 0-1.344.356l.004-.003-1.252.96-1.898 1.418-1.358-.541c2.421-1.086 4.114-3.508 4.114-6.321 0-3.824-3.123-6.934-6.962-6.934s-6.962 3.11-6.962 6.934c0 1.386.414 2.674 1.12 3.759l-2.769-.024c-.008 0-.015.005-.024.005a.52.52 0 0 0-.155.03c-.013.005-.026.008-.038.014-.006.002-.013.003-.019.007l-3.234 1.597-1.894.911a.429.429 0 0 0-.064.036l.001-.001a1.78 1.78 0 0 0-.593 2.304l-.005-.01c.22.429.595.745 1.056.89a1.772 1.772 0 0 0 1.388-.133l-.009.005 1.388-.738 2.264-1.17 1.357-.008-5.443 5.416-.002.002L.858 23.55c-.303.299-.49.714-.49 1.173v.005a1.664 1.664 0 0 0 1.669 1.664 1.67 1.67 0 0 0 1.18-.485l1.315-1.309 1.741-1.3.901.897-3.102 3.089c-.303.299-.49.714-.49 1.173v.005c0 .445.174.864.49 1.179.325.323.753.485 1.18.485s.855-.162 1.18-.485l3.482-3.467.001-.002 1.01-1-.004-.003c.007-.006.015-.009.022-.015l5.167-5.659 3.471.494a.522.522 0 0 0 .266-.035l-.004.001c.017-.006.033-.015.05-.023.019-.009.039-.015.057-.027l3.214-2.134c.012-.008.018-.02.029-.029.012-.01.029-.014.04-.025l1.272-1.192a1.777 1.777 0 0 0 .209-2.366l.003.005zM2.13 17.772a.714.714 0 0 1-.558.052.717.717 0 0 1-.215-1.258l.002-.001 1.314-.632.316.925.133.388-.993.528zm3.498-1.827-1.549.8-.255-.747-.184-.537 2.027-1-.04 1.484zM20.73 9.323c0 .919-.219 1.785-.599 2.56l-4.182-1.899a1.86 1.86 0 0 0-.782-1.384l-.006-.004 1.464-4.861c2.378.756 4.105 2.974 4.105 5.588zm-11.791 0c0-3.235 2.645-5.868 5.895-5.868.253 0 .5.022.745.053l-1.432 4.754c-.019 0-.037-.005-.057-.005h-.001a1.872 1.872 0 0 0-1.872 1.866 1.872 1.872 0 0 0 1.872 1.867h.001c.695 0 1.295-.383 1.618-.945l3.863 1.755a5.891 5.891 0 0 1-4.737 2.39c-3.25 0-5.895-2.633-5.895-5.868zm5.957.8c0 .441-.362.8-.806.8h-.002a.804.804 0 0 1-.804-.8c0-.441.362-.8.806-.8s.806.359.806.8zM2.465 25.149a.609.609 0 0 1-.855 0 .591.591 0 0 1 0-.844l.962-.959.851.848-.959.955zm3.214 3.734a.606.606 0 0 1-.855.001.591.591 0 0 1 0-.844l.963-.959.852.848-.96.955zm3.483-3.469-.002.001-1.765 1.76-.852-.848 1.764-1.756.002-.001c.04-.04.065-.088.09-.135.007-.014.02-.026.026-.04.017-.041.019-.085.025-.129.004-.024.014-.047.014-.073 0-.035-.012-.07-.02-.105-.007-.032-.007-.065-.018-.096a.532.532 0 0 0-.091-.138c-.01-.012-.014-.027-.025-.038h-.001l-.001-.002-1.607-1.6c-.017-.017-.039-.024-.058-.038a.491.491 0 0 0-.084-.056l-.003-.001a.477.477 0 0 0-.09-.032l-.003-.001a.502.502 0 0 0-.101-.02H6.34a.49.49 0 0 0-.077.006h.003a.59.59 0 0 0-.108.021l.004-.001a.502.502 0 0 0-.096.046l.002-.001c-.02.011-.043.015-.061.029L4.233 23.49l-.901-.897 2.399-2.387 4.361 4.29-.927.919zm6.819-7.018c-.015-.002-.03.004-.045.003l-.026-.001a.562.562 0 0 0-.092.008h.003a.5.5 0 0 0-.187.069l.002-.001a.554.554 0 0 0-.083.061c-.013.011-.028.017-.04.029l-4.699 5.147-4.329-4.258 2.833-2.818a.535.535 0 0 0-.378-.911h-.001l-2.219.013.027-1.608 3.104.027a6.929 6.929 0 0 0 4.979 2.101h.003c.438 0 .864-.045 1.28-.123.04.032.079.064.13.085l2.409.96.153.758.179.885-3.003-.427zm4.042.179-.314-1.558 1.447-1.08.947 1.257-2.08 1.382zm3.754-2.831-.838.785-.931-1.237.832-.637a.73.73 0 0 1 .543-.143.716.716 0 0 1 .395 1.232z" style="fill:var(--color3, #2e2f42)"/><path fill="#2e2f42" d="m13.604 18.546-2.143-2.134a.53.53 0 0 0-.752 0l-2.143 2.134a.533.533 0 0 0 0 .756l2.143 2.133a.53.53 0 0 0 .752 0l2.143-2.133a.532.532 0 0 0 0-.756zm-2.52 1.76-1.387-1.381 1.387-1.381 1.388 1.381-1.388 1.381zm6.082-15.234-.258 1.036c.071.018 1.738.452 1.738 2.149h1.067c0-2.017-1.666-2.966-2.547-3.185zm2.548 4.251h-1.067v1.067h1.067V9.323z" style="fill:var(--color3, #2e2f42)"/></symbol><symbol id="technologies" viewBox="0 0 32 32"><path fill="#2e2f42" d="m30.777 22.1-8.444-8.506.937-4.616c.242.094.499.144.759.145h.032a2.159 2.159 0 1 0-2.029-1.42l-.005-.015-4.961.605L8.974.159a.53.53 0 0 0-.376-.16.54.54 0 0 0-.374.155L6.711 1.658a.53.53 0 0 0 0 .754l.814.825C6.382 5.3 5.709 7.76 5.709 10.377c0 4.106 1.656 7.826 4.337 10.527l-.001-.001a.506.506 0 0 0 .146.098 2.986 2.986 0 0 0-.052.546v6.189H3.738a2.67 2.67 0 0 0-2.668 2.667v1.067c0 .295.239.534.534.534h24.537a.534.534 0 0 0 .534-.534v-1.067a2.67 2.67 0 0 0-2.667-2.667h-6.401v-2.742a14.78 14.78 0 0 0 10.167-1.503l-.077.039.819.823a.534.534 0 0 0 .377.16.532.532 0 0 0 .373-.155l1.513-1.505a.535.535 0 0 0 0-.754zM23.283 6.234a1.067 1.067 0 1 1 .752 1.824h-.003a1.066 1.066 0 0 1-.746-1.824h-.002zm-1.256 3.505-.599 2.945-1.176-1.182 1.774-1.764zm-.606-.902-1.92 1.909-1.485-1.494 3.405-.415zm2.586 19.967a1.6 1.6 0 0 1 1.6 1.6v.534H2.137v-.534a1.6 1.6 0 0 1 1.6-1.6h20.269zM16.54 26.67v1.067h-5.334V26.67h5.334zm-5.334-1.067v-4.054c0-1.294 1.197-2.347 2.667-2.347s2.667 1.053 2.667 2.347v4.054h-5.334zm6.4-1.696v-2.358c0-1.882-1.675-3.413-3.733-3.413h-.059c-1.353 0-2.54.707-3.214 1.771l-.009.016a13.82 13.82 0 0 1-3.812-9.551c0-2.314.567-4.497 1.569-6.415l-.036.077 18.604 18.711c-1.823.947-3.98 1.502-6.267 1.502-1.079 0-2.129-.124-3.137-.357l.093.018zm11.291-.683L7.837 2.041l.755-.752 7.936 7.981c.003 0 .006.007.009.009l13.116 13.193-.757.752z" style="fill:var(--color3, #2e2f42)"/><path fill="#4d5ae5" d="M13.877 20.269h-.007a1.6 1.6 0 0 0-.002 3.2h.007a1.6 1.6 0 0 0 .002-3.2zm.374 1.979a.534.534 0 0 1-.91-.379v-.002a.534.534 0 0 1 .53-.531.535.535 0 0 1 .374.912h.005z" style="fill:var(--color2, #4d5ae5)"/></symbol><symbol id="twitter" viewBox="0 0 32 32"><path fill="#f4f4fd" d="M32.011 6.08a13.28 13.28 0 0 1-3.713 1.029l-.068.007a6.563 6.563 0 0 0 2.874-3.581l.013-.046a12.873 12.873 0 0 1-4.077 1.574l-.084.014a6.562 6.562 0 0 0-11.352 4.486c0 .52.044 1.02.152 1.497a18.56 18.56 0 0 1-13.5-6.831l-.027-.034a6.5 6.5 0 0 0-.896 3.312 6.567 6.567 0 0 0 2.889 5.444l.023.015a6.469 6.469 0 0 1-2.998-.823l.033.017v.072a6.596 6.596 0 0 0 5.215 6.441l.043.008a6.414 6.414 0 0 1-1.669.216h-.054.003a5.852 5.852 0 0 1-1.28-.118l.038.006c.873 2.625 3.275 4.497 6.124 4.571h.009a13.1 13.1 0 0 1-8.122 2.799h-.015.001c-.538 0-1.054-.024-1.571-.09 2.827 1.847 6.289 2.945 10.007 2.945h.063-.003c12.076 0 18.679-10.004 18.679-18.675 0-.29-.01-.57-.024-.848a13.194 13.194 0 0 0 3.259-3.36l.03-.047z" style="fill:var(--color4, #f4f4fd)"/></symbol></defs></svg>